<?xml version="1.0" encoding="utf-8"?>
<!-- Generator: Adobe Illustrator 25.0.1, SVG Export Plug-In . SVG Version: 6.00 Build 0)  -->
<svg version="1.1" id="Calque_1" xmlns="http://www.w3.org/2000/svg" xmlns:xlink="http://www.w3.org/1999/xlink" x="0px" y="0px"
	 viewBox="0 0 595.28 841.89" style="enable-background:new 0 0 595.28 841.89;" xml:space="preserve">
<style type="text/css">
	.st0{fill:#FFFFFF;stroke:#000000;stroke-width:3;stroke-miterlimit:10;}
	.st1{fill:#F1F2F2;stroke:#000000;stroke-width:4;stroke-miterlimit:10;}
	.st2{fill:none;stroke:#000000;stroke-width:3;stroke-miterlimit:10;}
	.st3{fill:none;stroke:#000000;stroke-width:2;stroke-miterlimit:10;}
</style>
<rect x="215.56" y="128.49" class="st0" width="163.56" height="695.06"/>
<rect x="215.56" y="476.02" class="st0" width="163.56" height="347.53"/>
<rect x="233.1" y="-233.1" transform="matrix(-1.836970e-16 1 -1 -1.836970e-16 361.5873 -233.0968)" class="st1" width="128.49" height="594.68"/>
<line class="st2" x1="0" y1="128.49" x2="107.78" y2="476.02"/>
<line class="st2" x1="594.68" y1="128.49" x2="488.38" y2="476.02"/>
<path class="st3" d="M287.16,722.94c-0.16,31.43-0.32,62.86-0.48,94.29"/>
<path class="st3" d="M287.89,672.71c-0.58,17.85,0.68,37.92-2.29,55.79c0.48,0.06,0.95,0.18,1.44,0.18
	c12.17,0,22.04-12.54,22.04-28.01C309.08,685.56,299.66,673.28,287.89,672.71z"/>
<line class="st3" x1="287.05" y1="728.68" x2="309.08" y2="816.91"/>
</svg>
